<mxfile host="Electron" modified="2024-01-27T16:33:14.191Z" agent="Mozilla/5.0 (Windows NT 10.0; Win64; x64) AppleWebKit/537.36 (KHTML, like Gecko) draw.io/21.3.7 Chrome/112.0.5615.204 Electron/24.5.0 Safari/537.36" etag="03V6F62Ea9hQXSajjnYX" version="21.3.7" type="device">
  <diagram name="Page-1" id="WtfGwhGttGxDT_P8GUDU">
    <mxGraphModel dx="1286" dy="768" grid="1" gridSize="10" guides="1" tooltips="1" connect="1" arrows="1" fold="1" page="1" pageScale="1" pageWidth="1100" pageHeight="850" math="0" shadow="0">
      <root>
        <mxCell id="0" />
        <mxCell id="1" parent="0" />
        <mxCell id="5nb9Y_bDbfN6vbcGwMvw-6" value="Submit Job Run" style="edgeStyle=orthogonalEdgeStyle;rounded=0;orthogonalLoop=1;jettySize=auto;html=1;entryX=0;entryY=0.5;entryDx=0;entryDy=0;fontSize=14;" edge="1" parent="1" source="5nb9Y_bDbfN6vbcGwMvw-1" target="5nb9Y_bDbfN6vbcGwMvw-2">
          <mxGeometry relative="1" as="geometry">
            <Array as="points">
              <mxPoint x="220" y="360" />
            </Array>
          </mxGeometry>
        </mxCell>
        <mxCell id="5nb9Y_bDbfN6vbcGwMvw-7" value="Observe execution" style="edgeStyle=orthogonalEdgeStyle;rounded=0;orthogonalLoop=1;jettySize=auto;html=1;entryX=0;entryY=0.5;entryDx=0;entryDy=0;fontSize=15;" edge="1" parent="1" source="5nb9Y_bDbfN6vbcGwMvw-1" target="5nb9Y_bDbfN6vbcGwMvw-3">
          <mxGeometry relative="1" as="geometry">
            <Array as="points">
              <mxPoint x="220" y="130" />
            </Array>
          </mxGeometry>
        </mxCell>
        <mxCell id="5nb9Y_bDbfN6vbcGwMvw-1" value="" style="html=1;verticalLabelPosition=bottom;align=center;labelBackgroundColor=#ffffff;verticalAlign=top;strokeWidth=2;strokeColor=#0080F0;shadow=0;dashed=0;shape=mxgraph.ios7.icons.user;" vertex="1" parent="1">
          <mxGeometry x="170" y="200" width="100" height="100" as="geometry" />
        </mxCell>
        <mxCell id="5nb9Y_bDbfN6vbcGwMvw-2" value="EMR Serverless Application" style="swimlane;whiteSpace=wrap;html=1;fontSize=20;startSize=50;" vertex="1" parent="1">
          <mxGeometry x="490" y="260" width="440" height="200" as="geometry" />
        </mxCell>
        <mxCell id="5nb9Y_bDbfN6vbcGwMvw-5" value="&lt;b style=&quot;border-color: var(--border-color);&quot;&gt;What it is: Logical (!) container for you EMR Job Runs&lt;/b&gt;&lt;br style=&quot;border-color: var(--border-color);&quot;&gt;Think of it as EMR Cluster, but without cluster :)&lt;br&gt;&lt;br style=&quot;border-color: var(--border-color);&quot;&gt;&lt;b style=&quot;border-color: var(--border-color);&quot;&gt;What it does (among others)&lt;/b&gt;:&lt;br style=&quot;border-color: var(--border-color);&quot;&gt;- Provisions on-demand workers&lt;br&gt;- Handles job runs" style="text;html=1;strokeColor=none;fillColor=none;align=left;verticalAlign=top;whiteSpace=wrap;rounded=0;horizontal=1;fontSize=16;" vertex="1" parent="5nb9Y_bDbfN6vbcGwMvw-2">
          <mxGeometry x="10" y="60" width="420" height="130" as="geometry" />
        </mxCell>
        <mxCell id="5nb9Y_bDbfN6vbcGwMvw-3" value="EMR Studio" style="swimlane;whiteSpace=wrap;html=1;fontSize=20;startSize=50;" vertex="1" parent="1">
          <mxGeometry x="490" y="30" width="440" height="200" as="geometry" />
        </mxCell>
        <mxCell id="5nb9Y_bDbfN6vbcGwMvw-4" value="&lt;b&gt;What it is: UI for EMR&lt;/b&gt;&lt;br&gt;&lt;br&gt;&lt;b&gt;What it does (among others)&lt;/b&gt;:&lt;br&gt;...&lt;br style=&quot;font-size: 16px;&quot;&gt;- Provides UI to observe Serverless Applications&lt;br style=&quot;font-size: 16px;&quot;&gt;..." style="text;html=1;strokeColor=none;fillColor=none;align=left;verticalAlign=top;whiteSpace=wrap;rounded=0;horizontal=1;fontSize=16;" vertex="1" parent="5nb9Y_bDbfN6vbcGwMvw-3">
          <mxGeometry x="10" y="62.5" width="420" height="127.5" as="geometry" />
        </mxCell>
        <mxCell id="5nb9Y_bDbfN6vbcGwMvw-8" value="S3-based&lt;br&gt;Spark script" style="sketch=0;points=[[0,0,0],[0.25,0,0],[0.5,0,0],[0.75,0,0],[1,0,0],[0,1,0],[0.25,1,0],[0.5,1,0],[0.75,1,0],[1,1,0],[0,0.25,0],[0,0.5,0],[0,0.75,0],[1,0.25,0],[1,0.5,0],[1,0.75,0]];outlineConnect=0;fontColor=#232F3E;gradientColor=#60A337;gradientDirection=north;fillColor=#277116;strokeColor=#ffffff;dashed=0;verticalLabelPosition=bottom;verticalAlign=top;align=center;html=1;fontSize=12;fontStyle=0;aspect=fixed;shape=mxgraph.aws4.resourceIcon;resIcon=mxgraph.aws4.s3;" vertex="1" parent="1">
          <mxGeometry x="220" y="380" width="40" height="40" as="geometry" />
        </mxCell>
        <mxCell id="5nb9Y_bDbfN6vbcGwMvw-11" value="Job&lt;br&gt;Params" style="html=1;shape=mxgraph.sysml.paramSet;whiteSpace=wrap;align=center;" vertex="1" parent="1">
          <mxGeometry x="280" y="380" width="70" height="50" as="geometry" />
        </mxCell>
        <mxCell id="5nb9Y_bDbfN6vbcGwMvw-12" value="Spark&lt;br&gt;Settings" style="html=1;verticalLabelPosition=bottom;align=center;labelBackgroundColor=#ffffff;verticalAlign=top;strokeWidth=2;strokeColor=#0080F0;shadow=0;dashed=0;shape=mxgraph.ios7.icons.settings;" vertex="1" parent="1">
          <mxGeometry x="360" y="380" width="40" height="40" as="geometry" />
        </mxCell>
      </root>
    </mxGraphModel>
  </diagram>
</mxfile>
